<svg width="72" height="72" viewBox="0 0 72 72" fill="none" xmlns="http://www.w3.org/2000/svg">
<circle cx="36" cy="36" r="36" fill="#6FBCF0"/>
<path fill-rule="evenodd" clip-rule="evenodd" d="M47.6676 28.399C48.0719 28.8058 48.3622 29.3117 48.5095 29.866C49.0542 31.9118 49.0542 36.1782 49.0542 36.1782C49.0542 36.1782 49.0542 40.4446 48.5095 42.4904C48.3622 43.0447 48.0719 43.5506 47.6676 43.9574C47.2634 44.3643 46.7594 44.6578 46.206 44.8087C44.1691 45.3564 36.0271 45.3564 36.0271 45.3564C36.0271 45.3564 27.8852 45.3564 25.8482 44.8087C25.2949 44.6578 24.7909 44.3643 24.3866 43.9574C23.9824 43.5506 23.6921 43.0447 23.5448 42.4904C23 40.4446 23 36.1782 23 36.1782C23 36.1782 23 31.9118 23.5448 29.866C23.6921 29.3117 23.9824 28.8058 24.3866 28.399C24.7909 27.9921 25.2949 27.6986 25.8482 27.5477C27.8852 27 36.0271 27 36.0271 27C36.0271 27 44.1691 27 46.206 27.5477C46.7594 27.6986 47.2634 27.9921 47.6676 28.399ZM40.169 36.1778L33.3594 32.3037V40.0519L40.169 36.1778Z" fill="white"/>
</svg>
