<svg width="72" height="72" viewBox="0 0 72 72" fill="none" xmlns="http://www.w3.org/2000/svg">
<circle cx="36" cy="36" r="36" fill="#6FBCF0"/>
<path d="M44.3175 28.493C42.7875 27.803 41.1475 27.293 39.4325 27.003C39.4172 27 39.4014 27.0019 39.3872 27.0084C39.3731 27.0148 39.3613 27.0255 39.3535 27.039C39.1435 27.408 38.9095 27.889 38.7455 28.269C36.9266 27.9972 35.0774 27.9972 33.2585 28.269C33.0758 27.8478 32.8698 27.4372 32.6415 27.039C32.6337 27.0253 32.622 27.0144 32.6079 27.0076C32.5938 27.0008 32.578 26.9985 32.5625 27.001C30.8485 27.291 29.2085 27.801 27.6775 28.492C27.6643 28.4975 27.6531 28.5069 27.6455 28.519C24.5335 33.094 23.6805 37.556 24.0995 41.962C24.1006 41.9727 24.104 41.9832 24.1093 41.9926C24.1147 42.0021 24.1219 42.0104 24.1305 42.017C25.9469 43.3394 27.9728 44.3468 30.1235 44.997C30.1385 45.0016 30.1545 45.0016 30.1695 44.9969C30.1845 44.9923 30.1977 44.9832 30.2075 44.9709C30.6703 44.352 31.0804 43.6954 31.4335 43.0079C31.4384 42.9986 31.4412 42.9882 31.4418 42.9776C31.4423 42.967 31.4406 42.9565 31.4367 42.9466C31.4328 42.9367 31.4269 42.9278 31.4192 42.9205C31.4116 42.9131 31.4025 42.9075 31.3925 42.9039C30.7465 42.6607 30.1206 42.3671 29.5205 42.0259C29.5097 42.0198 29.5006 42.0111 29.494 42.0005C29.4875 41.99 29.4836 41.978 29.4828 41.9656C29.482 41.9532 29.4843 41.9408 29.4895 41.9295C29.4947 41.9183 29.5026 41.9084 29.5125 41.9009C29.6385 41.8079 29.7645 41.711 29.8845 41.614C29.8953 41.6052 29.9083 41.5997 29.9221 41.5979C29.9358 41.5961 29.9498 41.5982 29.9625 41.604C33.8895 43.368 38.1425 43.368 42.0235 41.604C42.0362 41.5979 42.0503 41.5955 42.0643 41.5971C42.0782 41.5987 42.0915 41.6042 42.1025 41.6129C42.2225 41.7109 42.3475 41.8079 42.4745 41.9009C42.4845 41.9083 42.4925 41.918 42.4979 41.9292C42.5032 41.9403 42.5057 41.9527 42.5051 41.9651C42.5045 41.9774 42.5008 41.9895 42.4945 42.0001C42.4881 42.0107 42.4791 42.0196 42.4685 42.0259C41.8705 42.3699 41.2485 42.661 40.5955 42.903C40.5855 42.9066 40.5763 42.9123 40.5687 42.9198C40.561 42.9272 40.5551 42.9362 40.5512 42.9462C40.5473 42.9561 40.5456 42.9668 40.5462 42.9774C40.5467 42.9881 40.5496 42.9985 40.5545 43.0079C40.9145 43.6949 41.3265 44.3489 41.7795 44.9699C41.7889 44.9827 41.802 44.9922 41.8171 44.9972C41.8321 45.0022 41.8483 45.0025 41.8635 44.9979C44.0178 44.3496 46.0471 43.3417 47.8655 42.017C47.8744 42.0107 47.8818 42.0027 47.8873 41.9934C47.8928 41.9841 47.8963 41.9737 47.8975 41.9629C48.3975 36.8689 47.0595 32.443 44.3485 28.521C44.3418 28.5082 44.3308 28.4983 44.3175 28.493ZM32.0205 39.2789C30.8385 39.2789 29.8635 38.2099 29.8635 36.8989C29.8635 35.5869 30.8195 34.5189 32.0205 34.5189C33.2305 34.5189 34.1965 35.5959 34.1775 36.8989C34.1775 38.2109 33.2215 39.2789 32.0205 39.2789ZM39.9955 39.2789C38.8125 39.2789 37.8385 38.2099 37.8385 36.8989C37.8385 35.5869 38.7935 34.5189 39.9955 34.5189C41.2055 34.5189 42.1715 35.5959 42.1525 36.8989C42.1525 38.2109 41.2065 39.2789 39.9955 39.2789Z" fill="white"/>
</svg>
