<svg width="22" height="22" viewBox="0 0 22 22" fill="none" xmlns="http://www.w3.org/2000/svg">
<path d="M11.0064 1.98125C13.9472 1.98125 14.2955 1.99414 15.452 2.04571C16.5269 2.09299 17.1073 2.27349 17.4942 2.42391C18.0059 2.62161 18.3756 2.86228 18.7583 3.24477C19.1452 3.63157 19.3817 3.99687 19.5794 4.5083C19.7299 4.8951 19.9105 5.47959 19.9578 6.54972C20.0094 7.7101 20.0223 8.05821 20.0223 10.9936C20.0223 13.9332 20.0094 14.2813 19.9578 15.4374C19.9105 16.5118 19.7299 17.092 19.5794 17.4788C19.3817 17.9902 19.1409 18.3598 18.7583 18.7423C18.3713 19.1291 18.0059 19.3655 17.4942 19.5632C17.1073 19.7136 16.5226 19.8941 15.452 19.9414C14.2912 19.993 13.9429 20.0059 11.0064 20.0059C8.06566 20.0059 7.71741 19.993 6.56088 19.9414C5.48603 19.8941 4.90561 19.7136 4.51866 19.5632C4.00704 19.3655 3.63729 19.1248 3.25464 18.7423C2.8677 18.3555 2.63123 17.9902 2.43346 17.4788C2.28298 17.092 2.1024 16.5075 2.05511 15.4374C2.00352 14.277 1.99062 13.9289 1.99062 10.9936C1.99062 8.05392 2.00352 7.7058 2.05511 6.54972C2.1024 5.47529 2.28298 4.8951 2.43346 4.5083C2.63123 3.99687 2.872 3.62727 3.25464 3.24477C3.64159 2.85798 4.00704 2.62161 4.51866 2.42391C4.90561 2.27349 5.49033 2.09299 6.56088 2.04571C7.71741 1.99414 8.06566 1.98125 11.0064 1.98125ZM11.0064 0C8.01837 0 7.64432 0.0128931 6.47059 0.0644657C5.30115 0.116038 4.49717 0.305138 3.80066 0.575894C3.07407 0.859543 2.45925 1.23344 1.84874 1.84802C1.23393 2.45829 0.859879 3.07287 0.576119 3.79488C0.305257 4.49541 0.116084 5.29478 0.0644909 6.46376C0.0128982 7.64134 0 8.01524 0 11.0021C0 13.9891 0.0128982 14.363 0.0644909 15.5362C0.116084 16.7052 0.305257 17.5089 0.576119 18.2051C0.859879 18.9314 1.23393 19.546 1.84874 20.1563C2.45925 20.7666 3.07407 21.1448 3.79637 21.4241C4.49717 21.6949 5.29685 21.884 6.46629 21.9355C7.64002 21.9871 8.01407 22 11.0021 22C13.9902 22 14.3643 21.9871 15.538 21.9355C16.7074 21.884 17.5114 21.6949 18.2079 21.4241C18.9302 21.1448 19.545 20.7666 20.1556 20.1563C20.7661 19.546 21.1444 18.9314 21.4239 18.2094C21.6947 17.5089 21.8839 16.7095 21.9355 15.5405C21.9871 14.3673 22 13.9934 22 11.0064C22 8.01954 21.9871 7.64563 21.9355 6.47236C21.8839 5.30338 21.6947 4.49971 21.4239 3.80348C21.153 3.07287 20.779 2.45829 20.1642 1.84802C19.5536 1.23774 18.9388 0.859543 18.2165 0.580191C17.5157 0.309435 16.716 0.120336 15.5466 0.0687634C14.3686 0.0128931 13.9945 0 11.0064 0Z" fill="white"/>
<path d="M11.0064 5.35066C7.88509 5.35066 5.35275 7.88201 5.35275 11.0022C5.35275 14.1223 7.88509 16.6536 11.0064 16.6536C14.1278 16.6536 16.6602 14.1223 16.6602 11.0022C16.6602 7.88201 14.1278 5.35066 11.0064 5.35066ZM11.0064 14.6681C8.98143 14.6681 7.33907 13.0264 7.33907 11.0022C7.33907 8.97793 8.98143 7.3362 11.0064 7.3362C13.0315 7.3362 14.6738 8.97793 14.6738 11.0022C14.6738 13.0264 13.0315 14.6681 11.0064 14.6681Z" fill="white"/>
<path d="M18.2036 5.12724C18.2036 5.85786 17.6103 6.44664 16.8837 6.44664C16.1528 6.44664 15.5638 5.85356 15.5638 5.12724C15.5638 4.39663 16.1571 3.80784 16.8837 3.80784C17.6103 3.80784 18.2036 4.40093 18.2036 5.12724Z" fill="white"/>
</svg>
