<svg width="72" height="72" viewBox="0 0 72 72" fill="none" xmlns="http://www.w3.org/2000/svg">
<circle cx="36" cy="36" r="36" fill="#6FBCF0"/>
<path d="M36.0064 26.9812C38.9472 26.9812 39.2955 26.9941 40.452 27.0457C41.5269 27.093 42.1073 27.2735 42.4942 27.4239C43.0059 27.6216 43.3756 27.8623 43.7583 28.2448C44.1452 28.6316 44.3817 28.9969 44.5794 29.5083C44.7299 29.8951 44.9105 30.4796 44.9578 31.5497C45.0094 32.7101 45.0223 33.0582 45.0223 35.9936C45.0223 38.9332 45.0094 39.2813 44.9578 40.4374C44.9105 41.5118 44.7299 42.092 44.5794 42.4788C44.3817 42.9902 44.1409 43.3598 43.7583 43.7423C43.3713 44.1291 43.0059 44.3655 42.4942 44.5632C42.1073 44.7136 41.5226 44.8941 40.452 44.9414C39.2912 44.993 38.9429 45.0059 36.0064 45.0059C33.0657 45.0059 32.7174 44.993 31.5609 44.9414C30.486 44.8941 29.9056 44.7136 29.5187 44.5632C29.007 44.3655 28.6373 44.1248 28.2546 43.7423C27.8677 43.3555 27.6312 42.9902 27.4335 42.4788C27.283 42.092 27.1024 41.5075 27.0551 40.4374C27.0035 39.277 26.9906 38.9289 26.9906 35.9936C26.9906 33.0539 27.0035 32.7058 27.0551 31.5497C27.1024 30.4753 27.283 29.8951 27.4335 29.5083C27.6312 28.9969 27.872 28.6273 28.2546 28.2448C28.6416 27.858 29.007 27.6216 29.5187 27.4239C29.9056 27.2735 30.4903 27.093 31.5609 27.0457C32.7174 26.9941 33.0657 26.9812 36.0064 26.9812ZM36.0064 25C33.0184 25 32.6443 25.0129 31.4706 25.0645C30.3012 25.116 29.4972 25.3051 28.8007 25.5759C28.0741 25.8595 27.4593 26.2334 26.8487 26.848C26.2339 27.4583 25.8599 28.0729 25.5761 28.7949C25.3053 29.4954 25.1161 30.2948 25.0645 31.4638C25.0129 32.6413 25 33.0152 25 36.0021C25 38.9891 25.0129 39.363 25.0645 40.5362C25.1161 41.7052 25.3053 42.5089 25.5761 43.2051C25.8599 43.9314 26.2339 44.546 26.8487 45.1563C27.4593 45.7666 28.0741 46.1448 28.7964 46.4241C29.4972 46.6949 30.2969 46.884 31.4663 46.9355C32.64 46.9871 33.0141 47 36.0021 47C38.9902 47 39.3643 46.9871 40.538 46.9355C41.7074 46.884 42.5114 46.6949 43.2079 46.4241C43.9302 46.1448 44.545 45.7666 45.1556 45.1563C45.7661 44.546 46.1444 43.9314 46.4239 43.2094C46.6947 42.5089 46.8839 41.7095 46.9355 40.5405C46.9871 39.3673 47 38.9934 47 36.0064C47 33.0195 46.9871 32.6456 46.9355 31.4724C46.8839 30.3034 46.6947 29.4997 46.4239 28.8035C46.153 28.0729 45.779 27.4583 45.1642 26.848C44.5536 26.2377 43.9388 25.8595 43.2165 25.5802C42.5157 25.3094 41.716 25.1203 40.5466 25.0688C39.3686 25.0129 38.9945 25 36.0064 25Z" fill="white"/>
<path d="M36.0064 30.3507C32.8851 30.3507 30.3527 32.882 30.3527 36.0022C30.3527 39.1223 32.8851 41.6536 36.0064 41.6536C39.1278 41.6536 41.6602 39.1223 41.6602 36.0022C41.6602 32.882 39.1278 30.3507 36.0064 30.3507ZM36.0064 39.6681C33.9814 39.6681 32.3391 38.0264 32.3391 36.0022C32.3391 33.9779 33.9814 32.3362 36.0064 32.3362C38.0315 32.3362 39.6738 33.9779 39.6738 36.0022C39.6738 38.0264 38.0315 39.6681 36.0064 39.6681Z" fill="white"/>
<path d="M43.2036 30.1272C43.2036 30.8579 42.6103 31.4466 41.8837 31.4466C41.1528 31.4466 40.5638 30.8536 40.5638 30.1272C40.5638 29.3966 41.1571 28.8078 41.8837 28.8078C42.6103 28.8078 43.2036 29.4009 43.2036 30.1272Z" fill="white"/>
</svg>
