<svg width="72" height="72" viewBox="0 0 72 72" fill="none" xmlns="http://www.w3.org/2000/svg">
<circle cx="36" cy="36" r="36" fill="#6FBCF0"/>
<path d="M28.372 31.264C28.3843 31.1423 28.3678 31.0194 28.3241 30.9051C28.2803 30.7908 28.2104 30.6884 28.12 30.606L26.252 28.339V28H32.05L36.532 37.905L40.472 28H46V28.339L44.403 29.88C44.3353 29.9322 44.2831 30.0019 44.2519 30.0815C44.2208 30.1611 44.2118 30.2477 44.226 30.332V41.666C44.2118 41.7503 44.2208 41.8369 44.2519 41.9165C44.2831 41.9961 44.3353 42.0658 44.403 42.118L45.963 43.66V44H38.119V43.661L39.735 42.081C39.894 41.921 39.894 41.874 39.894 41.63V32.468L35.402 43.962H34.796L29.566 32.468V40.172C29.523 40.495 29.63 40.822 29.856 41.056L31.957 43.624V43.962H26V43.624L28.1 41.056C28.2111 40.9401 28.2936 40.7997 28.3408 40.6462C28.388 40.4928 28.3987 40.3304 28.372 40.172V31.264Z" fill="white"/>
</svg>
