<svg width="20" height="20" viewBox="0 0 20 20" fill="none" xmlns="http://www.w3.org/2000/svg">
<path d="M8.05401 12.8097C8.05401 12.8097 13.2182 12.808 13.2482 12.8084H13.2493C14.7434 12.8264 16.1755 13.2094 17.3906 14.0791L19.0111 15.2387V13.4245L18.2491 12.8792C16.787 11.8329 15.0642 11.1815 13.2665 11.1598C13.2294 11.1594 8.05379 11.1618 8.05379 11.1618C7.2766 11.1618 6.59425 11.5763 6.21596 12.1958L3.9509 9.97279C3.51767 9.54772 2.9469 9.31447 2.34094 9.31447C2.33343 9.31447 2.32613 9.31447 2.31862 9.31469C1.70451 9.32027 1.12945 9.5651 0.699223 10.0033C0.269 10.4416 0.0353273 11.0212 0.0411208 11.6355C0.0469144 12.2497 0.29153 12.8247 0.729693 13.2547L6.20437 18.6275C6.93586 19.3452 7.90273 19.7405 8.92754 19.7405H19.0111V18.0925H8.92754C8.33703 18.0925 7.77999 17.8649 7.35878 17.4514L1.88389 12.0786C1.75987 11.9568 1.69056 11.7939 1.68884 11.6199C1.68734 11.4459 1.75343 11.2817 1.87531 11.1577C1.99719 11.0334 2.16005 10.9641 2.33407 10.9624C2.50874 10.9633 2.67224 11.027 2.79627 11.1489L6.33633 14.6231L6.34255 14.6168C6.48096 14.7986 6.64854 14.96 6.84273 15.0921C7.04765 15.2318 7.45341 15.4775 7.87012 15.5541C8.10036 15.5964 12.0267 16.0131 13.704 16.1903L13.8772 14.5516C11.7365 14.3255 8.47157 13.9763 8.16301 13.9324C8.11366 13.921 7.95874 13.8585 7.77077 13.7304C7.63237 13.6362 7.54976 13.4805 7.54976 13.3135C7.54997 13.0359 7.77592 12.8097 8.05401 12.8097Z" fill="white"/>
<path d="M7.91539 6.71275C8.26944 7.11336 8.41321 7.29296 8.41321 7.72082V8.6332C8.41321 9.47004 9.09062 10.1511 9.92339 10.1511H10.7553C11.5928 10.1511 12.2741 9.47026 12.2741 8.6332V7.72082C12.2741 7.26442 12.4436 7.06315 12.7515 6.69773C13.1706 6.20013 13.7439 5.51949 13.7495 4.14471V4.12497C13.7445 3.20895 13.3967 2.35043 12.7689 1.70563C12.1275 1.04688 11.2647 0.684037 10.3392 0.684037C8.42973 0.684037 6.87492 2.22576 6.86419 4.12497L6.86397 4.14471C6.86977 5.53065 7.4738 6.21343 7.91539 6.71275ZM10.0611 8.50316V7.93819H10.6261V8.50316H10.0611ZM10.3392 2.33198C11.3248 2.33198 12.0973 3.12376 12.1015 4.13634C12.099 4.91439 11.8438 5.21737 11.4911 5.63622C11.3314 5.82569 11.1559 6.03533 11.0046 6.29025H9.66997C9.50904 6.02825 9.32086 5.81432 9.14984 5.62099C8.78142 5.2045 8.5147 4.90302 8.51213 4.13634C8.51685 3.14071 9.33459 2.33198 10.3392 2.33198Z" fill="white"/>
<path d="M14.6983 5.99349L16.4177 6.85952L15.6764 8.33129L13.957 7.46526L14.6983 5.99349Z" fill="white"/>
<path d="M15.9362 0.65979L16.6776 2.13156L14.9951 2.97914L14.2537 1.50736L15.9362 0.65979Z" fill="white"/>
<path d="M15.0522 3.70848H16.9213V5.35642H15.0522V3.70848Z" fill="white"/>
<path d="M4.89846 8.33129L4.15732 6.85952L5.87671 5.99371L6.61786 7.46548L4.89846 8.33129Z" fill="white"/>
<path d="M4.64097 0.660005L6.32346 1.50758L5.5821 2.97935L3.8994 2.13178L4.64097 0.660005Z" fill="white"/>
<path d="M3.65543 3.70848H5.52459V5.35642H3.65543V3.70848Z" fill="white"/>
</svg>
