<svg width="20" height="20" viewBox="0 0 20 20" fill="none" xmlns="http://www.w3.org/2000/svg">
<path d="M9.92557 2.04744C12.0164 2.04744 13.9896 2.87243 15.4489 4.30834H14.2026V5.95575H18.3447V1.81362H16.6973V3.22615C14.9244 1.43266 12.4986 0.400024 9.92557 0.400024C4.67337 0.400024 0.400391 4.673 0.400391 9.9252H2.0478C2.0478 5.58143 5.5818 2.04744 9.92557 2.04744Z" fill="white"/>
<path d="M17.8033 9.9252C17.8033 14.269 14.2858 17.803 9.96246 17.803C7.87381 17.803 5.89949 16.9777 4.43955 15.5421H5.61183V13.8946H1.5066V18.0368H3.15401V16.5865C4.93056 18.4029 7.37422 19.4504 9.96246 19.4504C12.5054 19.4504 14.8914 18.4589 16.681 16.6588C18.4672 14.8623 19.4507 12.471 19.4507 9.9252H17.8033Z" fill="white"/>
<path d="M9.92556 4.71847C7.05203 4.71847 4.71434 7.05617 4.71434 9.9297C4.71434 12.8032 7.05203 15.1409 9.92556 15.1409C12.7991 15.1409 15.1368 12.8032 15.1368 9.9297C15.1368 7.05617 12.7991 4.71847 9.92556 4.71847ZM13.3924 9.10599H12.1985C12.1494 8.32648 12.029 7.57206 11.8325 6.92103C12.6041 7.41203 13.1749 8.19112 13.3924 9.10599ZM9.92556 13.2299C9.82753 13.0804 9.69347 12.8086 9.56841 12.3609C9.4382 11.895 9.34832 11.342 9.30457 10.7534H10.5466C10.5028 11.342 10.4129 11.895 10.2827 12.3609C10.1577 12.8086 10.0236 13.0804 9.92556 13.2299ZM9.30457 9.10599C9.34832 8.51717 9.4382 7.96417 9.56841 7.49848C9.69347 7.05081 9.82753 6.77881 9.92556 6.62951C10.0236 6.77881 10.1577 7.05081 10.2829 7.49848C10.4129 7.96417 10.5028 8.51717 10.5466 9.10599H9.30457ZM8.01881 6.92103C7.82211 7.57206 7.70199 8.32648 7.65265 9.10599H6.45892C6.67621 8.19112 7.24702 7.41203 8.01881 6.92103ZM6.45892 10.7534H7.65286C7.70199 11.5329 7.82232 12.2873 8.01881 12.9382C7.24702 12.4474 6.67621 11.6683 6.45892 10.7534ZM11.8325 12.9382C12.029 12.2873 12.1494 11.5329 12.1985 10.7534H13.3924C13.1749 11.6683 12.6041 12.4474 11.8325 12.9382Z" fill="white"/>
</svg>
