<svg width="72" height="72" viewBox="0 0 72 72" fill="none" xmlns="http://www.w3.org/2000/svg">
<circle cx="36" cy="36" r="36" fill="#6FBCF0"/>
<path d="M31.5475 45C40.6042 45 45.5578 38.0743 45.5578 32.0683C45.5578 31.8716 45.5578 31.6758 45.5434 31.4808C46.507 30.8374 47.3389 30.0408 48 29.1282C47.1014 29.496 46.148 29.737 45.1718 29.8433C46.1998 29.2754 46.9692 28.382 47.3366 27.3295C46.3701 27.8589 45.3126 28.232 44.2099 28.4326C43.4675 27.704 42.4856 27.2215 41.4162 27.0598C40.3468 26.8982 39.2494 27.0663 38.294 27.5383C37.3385 28.0103 36.5782 28.7597 36.1307 29.6707C35.6833 30.5817 35.5735 31.6035 35.8186 32.5778C33.8609 32.4872 31.9458 32.0176 30.1975 31.1995C28.4492 30.3814 26.9068 29.2331 25.6704 27.8292C25.0407 28.8298 24.8479 30.0142 25.1311 31.1414C25.4143 32.2686 26.1523 33.2537 27.1949 33.8963C26.4112 33.8751 25.6446 33.68 24.96 33.3274V33.385C24.9603 34.4344 25.3539 35.4513 26.0739 36.2633C26.7939 37.0754 27.7961 37.6326 28.9104 37.8403C28.1855 38.0228 27.4249 38.0495 26.687 37.9183C27.0018 38.8213 27.6144 39.611 28.4392 40.1769C29.264 40.7428 30.2598 41.0566 31.2874 41.0746C30.2664 41.8153 29.0973 42.3629 27.8469 42.6862C26.5964 43.0094 25.2892 43.1019 24 42.9584C26.2518 44.2922 28.8719 44.9997 31.5475 44.9965" fill="white"/>
</svg>
