<svg width="27" height="19" viewBox="0 0 27 19" fill="none" xmlns="http://www.w3.org/2000/svg">
<path fill-rule="evenodd" clip-rule="evenodd" d="M24.6676 1.39896C25.0719 1.8058 25.3622 2.31168 25.5095 2.86596C26.0542 4.91181 26.0542 9.17819 26.0542 9.17819C26.0542 9.17819 26.0542 13.4446 25.5095 15.4904C25.3622 16.0447 25.0719 16.5506 24.6676 16.9574C24.2634 17.3643 23.7594 17.6578 23.206 17.8087C21.1691 18.3564 13.0271 18.3564 13.0271 18.3564C13.0271 18.3564 4.88517 18.3564 2.8482 17.8087C2.29487 17.6578 1.79086 17.3643 1.38661 16.9574C0.98237 16.5506 0.692071 16.0447 0.54477 15.4904C0 13.4446 0 9.17819 0 9.17819C0 9.17819 0 4.91181 0.54477 2.86596C0.692071 2.31168 0.98237 1.8058 1.38661 1.39896C1.79086 0.992113 2.29487 0.69858 2.8482 0.547731C4.88517 0 13.0271 0 13.0271 0C13.0271 0 21.1691 0 23.206 0.547731C23.7594 0.69858 24.2634 0.992113 24.6676 1.39896ZM17.169 9.1778L10.3594 5.30371V13.0519L17.169 9.1778Z" fill="white"/>
</svg>
